<svg width="13" height="13" viewBox="0 0 13 13" fill="none" xmlns="http://www.w3.org/2000/svg">
<path d="M10.6484 5.39797L6.89844 9.14797C6.84618 9.20041 6.78408 9.24202 6.71571 9.27041C6.64734 9.2988 6.57403 9.31342 6.5 9.31342C6.42597 9.31342 6.35266 9.2988 6.28429 9.27041C6.21592 9.24202 6.15382 9.20041 6.10156 9.14797L2.35156 5.39797C2.24589 5.2923 2.18652 5.14898 2.18652 4.99954C2.18652 4.85009 2.24589 4.70677 2.35156 4.6011C2.45723 4.49543 2.60056 4.43606 2.75 4.43606C2.89944 4.43606 3.04276 4.49543 3.14844 4.6011L6.50047 7.95313L9.8525 4.60063C9.95817 4.49496 10.1015 4.43559 10.2509 4.43559C10.4004 4.43559 10.5437 4.49496 10.6494 4.60063C10.755 4.7063 10.8144 4.84963 10.8144 4.99907C10.8144 5.14851 10.755 5.29183 10.6494 5.39751L10.6484 5.39797Z" fill="#999999"/>
</svg>
